<svg width="706" height="133" viewBox="0 0 706 133" fill="none" xmlns="http://www.w3.org/2000/svg">
<path d="M145.04 107L138.8 86.24H107.48L101.24 107H89.72L116.24 24.32H130.64L157.04 107H145.04ZM110.24 77H136.04L123.2 33.8L110.24 77Z" fill="url(#paint0_linear)"/>
<path d="M216.229 107H206.749L205.909 97.16C203.509 101.08 200.749 103.96 197.629 105.8C194.509 107.56 190.709 108.44 186.229 108.44C180.709 108.44 176.389 106.76 173.269 103.4C170.149 100.04 168.589 95.28 168.589 89.12V43.76H179.629V87.92C179.629 92.24 180.389 95.32 181.909 97.16C183.429 98.92 185.909 99.8 189.349 99.8C195.509 99.8 200.789 96.16 205.189 88.88V43.76H216.229V107Z" fill="url(#paint1_linear)"/>
<path d="M290.033 46.64C287.633 47.44 284.993 47.96 282.113 48.2C279.233 48.44 275.713 48.56 271.553 48.56C278.993 51.92 282.713 57.24 282.713 64.52C282.713 70.84 280.553 76 276.233 80C271.913 84 266.033 86 258.593 86C255.713 86 253.033 85.6 250.553 84.8C249.593 85.44 248.833 86.32 248.273 87.44C247.713 88.48 247.433 89.56 247.433 90.68C247.433 94.12 250.193 95.84 255.713 95.84H265.793C270.033 95.84 273.793 96.6 277.073 98.12C280.353 99.64 282.873 101.72 284.633 104.36C286.473 107 287.393 110 287.393 113.36C287.393 119.52 284.873 124.24 279.833 127.52C274.793 130.88 267.433 132.56 257.753 132.56C250.953 132.56 245.553 131.84 241.553 130.4C237.633 129.04 234.833 126.96 233.153 124.16C231.473 121.36 230.633 117.76 230.633 113.36H240.593C240.593 115.92 241.073 117.92 242.033 119.36C242.993 120.88 244.713 122 247.193 122.72C249.673 123.52 253.193 123.92 257.753 123.92C264.393 123.92 269.113 123.08 271.913 121.4C274.793 119.8 276.233 117.36 276.233 114.08C276.233 111.12 275.113 108.88 272.873 107.36C270.633 105.84 267.513 105.08 263.513 105.08H253.553C248.193 105.08 244.113 103.96 241.313 101.72C238.593 99.4 237.233 96.52 237.233 93.08C237.233 91 237.833 89 239.033 87.08C240.233 85.16 241.953 83.44 244.193 81.92C240.513 80 237.793 77.64 236.033 74.84C234.353 71.96 233.513 68.48 233.513 64.4C233.513 60.16 234.553 56.36 236.633 53C238.793 49.64 241.713 47.04 245.393 45.2C249.153 43.28 253.313 42.32 257.873 42.32C262.833 42.4 266.993 42.24 270.353 41.84C273.713 41.36 276.473 40.76 278.633 40.04C280.873 39.24 283.593 38.12 286.793 36.68L290.033 46.64ZM257.873 50.24C253.713 50.24 250.473 51.56 248.153 54.2C245.913 56.76 244.793 60.16 244.793 64.4C244.793 68.72 245.953 72.2 248.273 74.84C250.593 77.4 253.873 78.68 258.113 78.68C262.433 78.68 265.713 77.44 267.953 74.96C270.273 72.4 271.433 68.84 271.433 64.28C271.433 54.92 266.913 50.24 257.873 50.24Z" fill="url(#paint2_linear)"/>
<path d="M347.262 73.52C347.262 75.36 347.182 77.24 347.022 79.16H306.702C307.182 86.12 308.942 91.24 311.982 94.52C315.022 97.8 318.942 99.44 323.742 99.44C326.782 99.44 329.582 99 332.142 98.12C334.702 97.24 337.382 95.84 340.182 93.92L344.982 100.52C338.262 105.8 330.902 108.44 322.902 108.44C314.102 108.44 307.222 105.56 302.262 99.8C297.382 94.04 294.942 86.12 294.942 76.04C294.942 69.48 295.982 63.68 298.062 58.64C300.222 53.52 303.262 49.52 307.182 46.64C311.182 43.76 315.862 42.32 321.222 42.32C329.622 42.32 336.062 45.08 340.542 50.6C345.022 56.12 347.262 63.76 347.262 73.52ZM336.342 70.28C336.342 64.04 335.102 59.28 332.622 56C330.142 52.72 326.422 51.08 321.462 51.08C312.422 51.08 307.502 57.72 306.702 71H336.342V70.28Z" fill="url(#paint3_linear)"/>
<path d="M392.372 42.32C394.612 42.32 396.692 42.56 398.612 43.04L396.572 53.84C394.652 53.36 392.812 53.12 391.052 53.12C387.132 53.12 383.972 54.56 381.572 57.44C379.172 60.32 377.292 64.8 375.932 70.88V107H364.892V43.76H374.372L375.452 56.6C377.132 51.88 379.412 48.32 382.292 45.92C385.172 43.52 388.532 42.32 392.372 42.32Z" fill="url(#paint4_linear)"/>
<path d="M463.939 22.88C469.459 22.88 474.179 23.68 478.099 25.28C482.019 26.8 485.819 29.2 489.499 32.48L483.259 39.44C480.139 36.96 477.059 35.16 474.019 34.04C471.059 32.84 467.859 32.24 464.419 32.24C460.099 32.24 456.539 33.24 453.739 35.24C450.939 37.24 449.539 40.16 449.539 44C449.539 46.4 450.019 48.44 450.979 50.12C451.939 51.72 453.699 53.2 456.259 54.56C458.899 55.92 462.699 57.36 467.659 58.88C472.859 60.48 477.179 62.2 480.619 64.04C484.059 65.88 486.819 68.44 488.899 71.72C491.059 74.92 492.139 79 492.139 83.96C492.139 88.76 490.939 93 488.539 96.68C486.219 100.36 482.819 103.24 478.339 105.32C473.939 107.4 468.699 108.44 462.619 108.44C451.179 108.44 441.819 104.88 434.539 97.76L440.779 90.8C444.139 93.52 447.539 95.6 450.979 97.04C454.419 98.4 458.259 99.08 462.499 99.08C467.619 99.08 471.859 97.84 475.219 95.36C478.579 92.8 480.259 89.12 480.259 84.32C480.259 81.6 479.739 79.36 478.699 77.6C477.659 75.76 475.859 74.12 473.299 72.68C470.819 71.24 467.179 69.8 462.379 68.36C453.899 65.8 447.699 62.72 443.779 59.12C439.859 55.52 437.899 50.64 437.899 44.48C437.899 40.32 438.979 36.6 441.139 33.32C443.379 30.04 446.459 27.48 450.379 25.64C454.379 23.8 458.899 22.88 463.939 22.88Z" fill="url(#paint5_linear)"/>
<path d="M540.25 104.12C536.09 107 531.37 108.44 526.09 108.44C520.73 108.44 516.53 106.92 513.49 103.88C510.53 100.76 509.05 96.28 509.05 90.44V52.28H498.01V43.76H509.05V29.48L520.09 28.16V43.76H535.09L533.89 52.28H520.09V89.96C520.09 93.24 520.65 95.64 521.77 97.16C522.97 98.6 524.93 99.32 527.65 99.32C530.13 99.32 532.93 98.48 536.05 96.8L540.25 104.12Z" fill="url(#paint6_linear)"/>
<path d="M593.469 92.24C593.469 94.8 593.909 96.72 594.789 98C595.669 99.2 596.989 100.12 598.749 100.76L596.229 108.44C592.949 108.04 590.309 107.12 588.309 105.68C586.309 104.24 584.829 102 583.869 98.96C579.629 105.28 573.349 108.44 565.029 108.44C558.789 108.44 553.869 106.68 550.269 103.16C546.669 99.64 544.869 95.04 544.869 89.36C544.869 82.64 547.269 77.48 552.069 73.88C556.949 70.28 563.829 68.48 572.709 68.48H582.429V63.8C582.429 59.32 581.349 56.12 579.189 54.2C577.029 52.28 573.709 51.32 569.229 51.32C564.589 51.32 558.909 52.44 552.189 54.68L549.429 46.64C557.269 43.76 564.549 42.32 571.269 42.32C578.709 42.32 584.269 44.16 587.949 47.84C591.629 51.44 593.469 56.6 593.469 63.32V92.24ZM567.549 100.16C573.869 100.16 578.829 96.88 582.429 90.32V75.8H574.149C562.469 75.8 556.629 80.12 556.629 88.76C556.629 92.52 557.549 95.36 559.389 97.28C561.229 99.2 563.949 100.16 567.549 100.16Z" fill="url(#paint7_linear)"/>
<path d="M648.062 104.12C643.902 107 639.182 108.44 633.902 108.44C628.542 108.44 624.342 106.92 621.302 103.88C618.342 100.76 616.862 96.28 616.862 90.44V52.28H605.822V43.76H616.862V29.48L627.902 28.16V43.76H642.902L641.702 52.28H627.902V89.96C627.902 93.24 628.462 95.64 629.582 97.16C630.782 98.6 632.742 99.32 635.462 99.32C637.942 99.32 640.742 98.48 643.862 96.8L648.062 104.12Z" fill="url(#paint8_linear)"/>
<path d="M705.504 73.52C705.504 75.36 705.424 77.24 705.264 79.16H664.944C665.424 86.12 667.184 91.24 670.224 94.52C673.264 97.8 677.184 99.44 681.984 99.44C685.024 99.44 687.824 99 690.384 98.12C692.944 97.24 695.624 95.84 698.424 93.92L703.224 100.52C696.504 105.8 689.144 108.44 681.144 108.44C672.344 108.44 665.464 105.56 660.504 99.8C655.624 94.04 653.184 86.12 653.184 76.04C653.184 69.48 654.224 63.68 656.304 58.64C658.464 53.52 661.504 49.52 665.424 46.64C669.424 43.76 674.104 42.32 679.464 42.32C687.864 42.32 694.304 45.08 698.784 50.6C703.264 56.12 705.504 63.76 705.504 73.52ZM694.584 70.28C694.584 64.04 693.344 59.28 690.864 56C688.384 52.72 684.664 51.08 679.704 51.08C670.664 51.08 665.744 57.72 664.944 71H694.584V70.28Z" fill="url(#paint9_linear)"/>
<path d="M78.9985 26.0533L57.4588 16.6327L57.988 15.4314C58.1354 15.0968 58.1436 14.7176 58.0109 14.3774C57.8783 14.0371 57.6155 13.7637 57.2805 13.6171L46.7128 8.99435C46.5469 8.92176 46.3682 8.88253 46.1869 8.8789C46.0057 8.87527 45.8254 8.90732 45.6565 8.9732C45.4875 9.03908 45.3332 9.13752 45.2022 9.26288C45.0713 9.38824 44.9663 9.53808 44.8933 9.70384L44.3647 10.9053L22.8295 1.48632C20.4598 0.449828 17.7729 0.396112 15.36 1.33699C12.9471 2.27786 11.0058 4.13625 9.96322 6.50334C8.92062 8.87042 8.86212 11.5523 9.80057 13.959C10.739 16.3657 12.5976 18.3 14.9673 19.3365L32.1302 26.8427L29.5216 32.765C29.3742 33.0997 29.3659 33.4789 29.4986 33.8192C29.6313 34.1595 29.8941 34.433 30.2292 34.5796L33.3384 35.9393L16.7917 73.5071C15.1573 77.2174 17.089 80.265 19.0124 82.7723L18.9228 82.9757C15.7759 81.8968 13.5013 83.7594 12.7079 85.3672C12.6993 85.3851 12.6907 85.4029 12.6828 85.4213C12.6304 85.5403 12.5816 85.6579 12.5365 85.774C12.5238 85.7989 12.507 85.8205 12.4955 85.8467L9.52139 92.5991C8.09332 95.8414 9.04963 98.4307 10.2958 100.587C7.71314 100.235 5.8609 101.965 5.16353 103.113C5.13217 103.165 5.10427 103.218 5.08002 103.274C5.04178 103.362 5.00644 103.448 4.97118 103.535C4.96385 103.55 4.95326 103.563 4.94653 103.579L1.54536 111.301C1.19157 112.089 1.00682 112.942 1.00297 113.806C0.964037 114.012 0.972899 114.225 1.02888 114.427L2.82007 120.898C2.87146 121.084 2.9613 121.256 3.0838 121.405C3.2063 121.554 3.35873 121.675 3.53125 121.761C3.70377 121.847 3.89253 121.896 4.08536 121.905C4.27819 121.914 4.47078 121.882 4.65071 121.812C4.69426 121.795 4.73691 121.776 4.77848 121.755L10.4153 118.869C10.4832 118.855 10.55 118.836 10.615 118.811C10.9363 118.674 11.199 118.428 11.3566 118.116C11.5143 117.804 11.5568 117.448 11.4768 117.108C11.3625 115.265 10.6741 113.712 9.88347 112.325C10.7823 112.497 11.7118 112.411 12.5646 112.077C13.6744 111.631 14.6158 110.847 15.2549 109.838C15.2862 109.786 15.314 109.733 15.3383 109.678C15.3565 109.636 15.3721 109.596 15.3892 109.555C15.3931 109.547 15.3987 109.54 15.4026 109.532L18.4997 102.499C20.1158 98.8301 18.678 95.995 17.2216 93.6796L17.3219 93.4515C18.5243 93.8696 20.317 94.2671 21.9293 93.7384C22.0082 93.7126 22.0858 93.6848 22.1621 93.6551C23.1907 93.2517 24.0255 92.4698 24.4944 91.4709L46.4324 41.6664L49.5459 43.0279C49.8809 43.1745 50.2608 43.1821 50.602 43.049C50.9432 42.916 51.2177 42.6532 51.3651 42.3185L53.9737 36.3963L71.1362 43.9026C72.3114 44.4279 73.5795 44.7155 74.8675 44.749C76.1555 44.7825 77.4378 44.5611 78.6405 44.0977C79.8432 43.6342 80.9425 42.9379 81.875 42.0488C82.8075 41.1597 83.5548 40.0955 84.0737 38.9174C84.5926 37.7394 84.8729 36.4709 84.8984 35.1851C84.9239 33.8993 84.6941 32.6216 84.2223 31.4257C83.7505 30.2298 83.046 29.1394 82.1494 28.2173C81.2529 27.2953 80.182 26.5598 78.9985 26.0533ZM8.65178 116.678L5.03013 118.532L3.76734 113.969C3.76711 113.957 3.76651 113.944 3.76615 113.933C3.74776 113.407 3.85251 112.885 4.07206 112.406L5.22329 109.792C5.64945 110.665 6.12844 111.51 6.6576 112.324L6.65944 112.329C7.54888 113.756 8.39277 115.117 8.65178 116.678ZM7.67852 108.505C7.08496 107.177 6.93559 105.966 7.56717 104.471C7.77511 104.162 8.57861 103.133 9.95794 103.33L7.67852 108.505ZM12.851 108.481C12.6313 108.808 11.7465 109.937 10.2208 109.576L12.5465 104.296C13.2608 105.712 13.4931 106.957 12.851 108.481ZM15.9736 101.394L15.1367 103.294C14.6797 102.387 14.1653 101.509 13.5966 100.667C11.8955 98.0337 10.911 96.2887 12.0487 93.7055L12.8856 91.8053C13.3427 92.7128 13.8571 93.5902 14.4258 94.4323C16.1263 97.0659 17.1111 98.8108 15.9736 101.394ZM15.4751 90.804C14.7525 89.3727 14.5244 88.1182 15.1896 86.5727C15.3904 86.2334 15.664 85.9425 15.9906 85.7211C16.2585 85.5534 16.5605 85.4478 16.8745 85.412C17.1885 85.3763 17.5064 85.4113 17.8048 85.5145L15.4751 90.804ZM22.15 89.9558L22.0103 90.2734L22.0097 90.2756C21.9232 90.4742 21.7953 90.6521 21.6345 90.7975C21.4737 90.943 21.2838 91.0525 21.0773 91.1189C20.3115 91.3722 19.2706 91.1732 18.4416 90.9108L20.9038 85.3206L20.9245 85.2731C22.1644 87.0154 22.7594 88.4031 22.15 89.9558ZM46.8649 12.0714L54.9054 15.5881L48.1519 30.9219L40.1113 27.4052L46.8649 12.0714ZM16.079 16.8126C14.3794 16.0692 13.0464 14.6819 12.3733 12.9557C11.7002 11.2296 11.7421 9.30615 12.4899 7.60843C13.2376 5.91072 14.63 4.57784 16.3605 3.90301C18.0911 3.22819 20.0181 3.2667 21.7178 4.01008L43.2528 13.4289L37.6141 26.2314L16.079 16.8126ZM24.2014 85.2984C23.5553 84.094 22.6733 82.9698 21.8344 81.9022C19.551 78.9965 18.2423 77.0561 19.3187 74.6122L35.865 37.0445L43.9056 40.5612L24.2014 85.2984ZM49.3947 39.9513L32.6049 32.6081L34.6274 28.0164L51.4171 35.3596L49.3947 39.9513ZM81.4748 37.7811C80.7254 39.4773 79.333 40.8088 77.6031 41.4833C75.8732 42.1579 73.947 42.1205 72.2472 41.3794L50.7076 31.9587L56.3462 19.1562L77.8857 28.5768C79.5808 29.3254 80.9095 30.7132 81.5818 32.4375C82.2542 34.1617 82.2157 36.0826 81.4748 37.7811Z" fill="url(#paint10_linear)"/>
<defs>
<linearGradient id="paint0_linear" x1="1" y1="11" x2="716.004" y2="132.976" gradientUnits="userSpaceOnUse">
<stop stop-color="#FD746C"/>
<stop offset="1" stop-color="#FF9068"/>
</linearGradient>
<linearGradient id="paint1_linear" x1="1" y1="11" x2="716.004" y2="132.976" gradientUnits="userSpaceOnUse">
<stop stop-color="#FD746C"/>
<stop offset="1" stop-color="#FF9068"/>
</linearGradient>
<linearGradient id="paint2_linear" x1="1" y1="11" x2="716.004" y2="132.976" gradientUnits="userSpaceOnUse">
<stop stop-color="#FD746C"/>
<stop offset="1" stop-color="#FF9068"/>
</linearGradient>
<linearGradient id="paint3_linear" x1="1" y1="11" x2="716.004" y2="132.976" gradientUnits="userSpaceOnUse">
<stop stop-color="#FD746C"/>
<stop offset="1" stop-color="#FF9068"/>
</linearGradient>
<linearGradient id="paint4_linear" x1="1" y1="11" x2="716.004" y2="132.976" gradientUnits="userSpaceOnUse">
<stop stop-color="#FD746C"/>
<stop offset="1" stop-color="#FF9068"/>
</linearGradient>
<linearGradient id="paint5_linear" x1="1" y1="11" x2="716.004" y2="132.976" gradientUnits="userSpaceOnUse">
<stop stop-color="#FD746C"/>
<stop offset="1" stop-color="#FF9068"/>
</linearGradient>
<linearGradient id="paint6_linear" x1="1" y1="11" x2="716.004" y2="132.976" gradientUnits="userSpaceOnUse">
<stop stop-color="#FD746C"/>
<stop offset="1" stop-color="#FF9068"/>
</linearGradient>
<linearGradient id="paint7_linear" x1="1" y1="11" x2="716.004" y2="132.976" gradientUnits="userSpaceOnUse">
<stop stop-color="#FD746C"/>
<stop offset="1" stop-color="#FF9068"/>
</linearGradient>
<linearGradient id="paint8_linear" x1="1" y1="11" x2="716.004" y2="132.976" gradientUnits="userSpaceOnUse">
<stop stop-color="#FD746C"/>
<stop offset="1" stop-color="#FF9068"/>
</linearGradient>
<linearGradient id="paint9_linear" x1="1" y1="11" x2="716.004" y2="132.976" gradientUnits="userSpaceOnUse">
<stop stop-color="#FD746C"/>
<stop offset="1" stop-color="#FF9068"/>
</linearGradient>
<linearGradient id="paint10_linear" x1="1" y1="11" x2="716.004" y2="132.976" gradientUnits="userSpaceOnUse">
<stop stop-color="#FD746C"/>
<stop offset="1" stop-color="#FF9068"/>
</linearGradient>
</defs>
</svg>
